<svg width="150" height="150" fill="none" xmlns="http://www.w3.org/2000/svg"><path fill="#D9D9D9" d="M0 0h150v149.581H0z"/><path fill-rule="evenodd" clip-rule="evenodd" d="M92.198 90.778c6.873-7.074 10.728-18.754 12.221-33.05 2.137-22.333-11.583-40.776-30.315-40.776-18.733 0-32.75 19.086-30.316 41.374 1.783 15.167 5.679 26.628 12.67 33.283.933 4.88 1.347 12.425-3.14 16.304-7.921 6.848-11.776 9.023-21.186 11.34-20.925 5.152-23.657 15.173-26.153 24.329-.593 2.174-1.172 4.3-1.979 6.3l142.256.118c-1.017-2.301-1.717-4.717-2.422-7.15-2.678-9.235-5.425-18.71-25.791-23.04-11.605-2.467-14.374-4.637-23.447-12.008-5.361-4.357-4.12-13.048-2.398-17.024Z" fill="#AFAFAF"/></svg>
